<?xml version="1.0" encoding="iso-8859-1"?>
<!-- Generator: Adobe Illustrator 17.1.0, SVG Export Plug-In . SVG Version: 6.00 Build 0)  -->
<!DOCTYPE svg PUBLIC "-//W3C//DTD SVG 1.1//EN" "http://www.w3.org/Graphics/SVG/1.1/DTD/svg11.dtd">
<svg version="1.1" id="Capa_1" xmlns="http://www.w3.org/2000/svg" xmlns:xlink="http://www.w3.org/1999/xlink" x="0px" y="0px"
	 viewBox="0 0 352.531 352.531" style="enable-background:new 0 0 352.531 352.531;" xml:space="preserve">
<path id="XMLID_202_" d="M84.611,187.266H11c-6.075,0-11-4.925-11-11s4.925-11,11-11h73.611c6.075,0,11,4.925,11,11
	S90.686,187.266,84.611,187.266z M37.447,147.754h47.164c6.075,0,11-4.925,11-11s-4.925-11-11-11H37.447c-6.075,0-11,4.925-11,11
	S31.372,147.754,37.447,147.754z M121.646,223.01c1.849,1.199,3.922,1.771,5.973,1.771c3.604,0,7.135-1.77,9.241-5.019
	l21.063-32.496h93.943l21.061,32.496c3.304,5.098,10.115,6.552,15.214,3.249c5.098-3.304,6.552-10.116,3.248-15.213l-20.436-31.531
	l20.436-31.532c3.304-5.098,1.85-11.909-3.249-15.213c-5.098-3.304-11.909-1.85-15.213,3.249l-21.061,32.497h-93.942l-21.063-32.498
	c-3.304-5.098-10.117-6.553-15.213-3.248c-5.098,3.304-6.552,10.115-3.248,15.213l20.437,31.532l-20.437,31.53
	C115.094,212.894,116.548,219.706,121.646,223.01z M341.531,51.402H68.257c-6.075,0-11,4.925-11,11v29.874c0,6.075,4.925,11,11,11
	s11-4.925,11-11V73.402h251.273v205.728H79.257v-18.874c0-6.075-4.925-11-11-11s-11,4.925-11,11v29.874c0,6.075,4.925,11,11,11
	h273.273c6.075,0,11-4.925,11-11V62.402C352.531,56.326,347.606,51.402,341.531,51.402z M95.611,215.778c0-6.075-4.925-11-11-11
	H37.447c-6.075,0-11,4.925-11,11s4.925,11,11,11h47.164C90.686,226.778,95.611,221.853,95.611,215.778z"/>
<g>
</g>
<g>
</g>
<g>
</g>
<g>
</g>
<g>
</g>
<g>
</g>
<g>
</g>
<g>
</g>
<g>
</g>
<g>
</g>
<g>
</g>
<g>
</g>
<g>
</g>
<g>
</g>
<g>
</g>
</svg>
